<svg width="150" height="150" viewBox="0 0 150 150" fill="none" xmlns="http://www.w3.org/2000/svg">
<rect width="150" height="150" fill="url(#paint0_linear)"/>
<path d="M59.8438 138.672C59.7917 137.734 59.7135 136.328 59.6094 134.453C59.5573 132.526 59.4792 130.365 59.375 127.969C59.3229 125.521 59.2448 122.969 59.1406 120.312C59.0365 117.656 58.9323 115.13 58.8281 112.734C58.776 110.339 58.724 108.203 58.6719 106.328C58.6198 104.401 58.5938 102.969 58.5938 102.031C58.5938 101.719 58.5677 101.198 58.5156 100.469C58.5156 99.6875 58.5156 98.8802 58.5156 98.0469C58.5156 97.1615 58.5156 96.3281 58.5156 95.5469C58.5677 94.7656 58.5938 94.2188 58.5938 93.9062C57.9688 94.2188 57.2135 94.7656 56.3281 95.5469C55.4948 96.3281 54.5833 97.1875 53.5938 98.125C52.6042 99.0104 51.5885 99.8438 50.5469 100.625C49.5573 101.354 48.6198 101.823 47.7344 102.031C46.5365 101.302 45.9896 100.417 46.0938 99.375C46.1979 98.2812 46.7708 97.1354 47.8125 95.9375C48.9062 94.6875 50.3385 93.4115 52.1094 92.1094C53.9323 90.8073 55.9115 89.5573 58.0469 88.3594C60.2344 87.1615 62.474 86.0677 64.7656 85.0781C67.0573 84.0885 69.2188 83.2812 71.25 82.6562C73.3333 81.9792 75.1562 81.5625 76.7188 81.4062C78.3333 81.1979 79.5312 81.3021 80.3125 81.7188C81.7708 83.2292 82.474 85.1042 82.4219 87.3438C82.3698 89.5833 81.875 91.9792 80.9375 94.5312C80 97.0833 78.776 99.7396 77.2656 102.5C75.7552 105.26 74.2969 107.943 72.8906 110.547C71.4844 113.099 70.2865 115.521 69.2969 117.812C68.3073 120.052 67.8385 121.979 67.8906 123.594C67.9427 125.208 68.6979 126.406 70.1562 127.188C71.6146 127.969 74.0885 128.151 77.5781 127.734C79.349 127.318 81.1979 126.667 83.125 125.781C85.0521 124.844 86.9271 123.828 88.75 122.734C90.5729 121.589 92.2656 120.391 93.8281 119.141C95.4427 117.891 96.7969 116.719 97.8906 115.625C99.7135 116.094 100.729 116.771 100.938 117.656C101.146 118.542 100.781 119.531 99.8438 120.625C98.9583 121.719 97.6042 122.865 95.7812 124.062C93.9583 125.26 91.901 126.432 89.6094 127.578C87.3177 128.672 84.9219 129.661 82.4219 130.547C79.974 131.432 77.6042 132.109 75.3125 132.578C73.0729 133.047 71.0417 133.255 69.2188 133.203C67.4479 133.151 66.1458 132.708 65.3125 131.875C65.3125 132.188 65.2865 132.734 65.2344 133.516C65.1823 134.297 65.0781 135.13 64.9219 136.016C64.7656 136.849 64.5052 137.656 64.1406 138.438C63.776 139.167 63.2552 139.688 62.5781 140C62.0052 140.26 61.4583 140.208 60.9375 139.844C60.4688 139.479 60.1042 139.089 59.8438 138.672ZM63.9844 121.484L78.3594 89.375C77.9948 88.1771 77.3698 87.3438 76.4844 86.875C75.651 86.3542 74.6875 86.1198 73.5938 86.1719C72.5 86.1719 71.3802 86.4062 70.2344 86.875C69.0885 87.3438 68.0208 87.9167 67.0312 88.5938C66.0938 89.2188 65.3125 89.9219 64.6875 90.7031C64.0625 91.4323 63.75 92.1094 63.75 92.7344L63.9844 121.484ZM113.516 138.672C110.547 137.474 108.281 135.911 106.719 133.984C105.156 132.005 104.089 129.974 103.516 127.891C102.943 125.755 102.76 123.698 102.969 121.719C103.177 119.74 103.568 118.151 104.141 116.953C104.714 115.703 105.365 115.026 106.094 114.922C106.875 114.766 107.526 115.443 108.047 116.953C107.474 120.234 107.474 123.099 108.047 125.547C108.62 127.943 109.557 129.948 110.859 131.562C112.161 133.125 113.75 134.297 115.625 135.078C117.5 135.807 119.427 136.198 121.406 136.25C123.385 136.25 125.312 135.885 127.188 135.156C129.062 134.427 130.677 133.385 132.031 132.031C133.385 130.625 134.375 128.88 135 126.797C135.625 124.714 135.677 122.344 135.156 119.688C134.896 118.49 134.193 117.031 133.047 115.312C131.953 113.542 130.677 111.667 129.219 109.688C127.812 107.708 126.354 105.703 124.844 103.672C123.333 101.589 122.057 99.6094 121.016 97.7344C120.026 95.8073 119.375 94.0625 119.062 92.5C118.802 90.8854 119.193 89.5573 120.234 88.5156C121.068 87.8385 122.292 86.8229 123.906 85.4688C125.573 84.0625 127.37 82.6823 129.297 81.3281C131.224 79.974 133.177 78.8021 135.156 77.8125C137.188 76.7708 139.01 76.25 140.625 76.25C141.823 76.25 142.448 76.4323 142.5 76.7969C142.604 77.1615 142.344 77.6562 141.719 78.2812C141.094 78.8542 140.182 79.5573 138.984 80.3906C137.839 81.224 136.589 82.1354 135.234 83.125C133.88 84.0625 132.5 85.0781 131.094 86.1719C129.74 87.2135 128.568 88.2812 127.578 89.375C126.641 90.4167 125.938 91.4583 125.469 92.5C125.052 93.4896 125.104 94.4271 125.625 95.3125C127.5 97.9688 129.375 100.651 131.25 103.359C133.177 106.068 134.844 108.75 136.25 111.406C137.656 114.01 138.698 116.589 139.375 119.141C140.104 121.641 140.208 124.062 139.688 126.406C139.167 128.698 137.891 130.885 135.859 132.969C133.88 135.052 130.938 136.953 127.031 138.672C124.688 139.661 122.422 140.13 120.234 140.078C118.099 140.026 115.859 139.557 113.516 138.672Z" fill="white"/>
<defs>
<linearGradient id="paint0_linear" x1="150" y1="150" x2="2.76009e-06" y2="2" gradientUnits="userSpaceOnUse">
<stop offset="0.20972" stop-color="#191654"/>
<stop offset="1" stop-color="#43C4AB"/>
<stop offset="1" stop-color="#43C6AC"/>
<stop offset="1" stop-color="#42C1AA"/>
</linearGradient>
</defs>
</svg>
