<svg width="150" height="150" viewBox="0 0 150 150" fill="none" xmlns="http://www.w3.org/2000/svg">
<circle cx="75" cy="75" r="75" fill="url(#paint0_linear)"/>
<path d="M51.8438 120.672C51.7917 119.734 51.7135 118.328 51.6094 116.453C51.5573 114.526 51.4792 112.365 51.375 109.969C51.3229 107.521 51.2448 104.969 51.1406 102.312C51.0365 99.6562 50.9323 97.1302 50.8281 94.7344C50.776 92.3385 50.724 90.2031 50.6719 88.3281C50.6198 86.401 50.5938 84.9688 50.5938 84.0312C50.5938 83.7188 50.5677 83.1979 50.5156 82.4688C50.5156 81.6875 50.5156 80.8802 50.5156 80.0469C50.5156 79.1615 50.5156 78.3281 50.5156 77.5469C50.5677 76.7656 50.5938 76.2188 50.5938 75.9062C49.9688 76.2188 49.2135 76.7656 48.3281 77.5469C47.4948 78.3281 46.5833 79.1875 45.5938 80.125C44.6042 81.0104 43.5885 81.8438 42.5469 82.625C41.5573 83.3542 40.6198 83.8229 39.7344 84.0312C38.5365 83.3021 37.9896 82.4167 38.0938 81.375C38.1979 80.2812 38.7708 79.1354 39.8125 77.9375C40.9062 76.6875 42.3385 75.4115 44.1094 74.1094C45.9323 72.8073 47.9115 71.5573 50.0469 70.3594C52.2344 69.1615 54.474 68.0677 56.7656 67.0781C59.0573 66.0885 61.2188 65.2812 63.25 64.6562C65.3333 63.9792 67.1562 63.5625 68.7188 63.4062C70.3333 63.1979 71.5312 63.3021 72.3125 63.7188C73.7708 65.2292 74.474 67.1042 74.4219 69.3438C74.3698 71.5833 73.875 73.9792 72.9375 76.5312C72 79.0833 70.776 81.7396 69.2656 84.5C67.7552 87.2604 66.2969 89.9427 64.8906 92.5469C63.4844 95.099 62.2865 97.5208 61.2969 99.8125C60.3073 102.052 59.8385 103.979 59.8906 105.594C59.9427 107.208 60.6979 108.406 62.1562 109.188C63.6146 109.969 66.0885 110.151 69.5781 109.734C71.349 109.318 73.1979 108.667 75.125 107.781C77.0521 106.844 78.9271 105.828 80.75 104.734C82.5729 103.589 84.2656 102.391 85.8281 101.141C87.4427 99.8906 88.7969 98.7188 89.8906 97.625C91.7135 98.0938 92.7292 98.7708 92.9375 99.6562C93.1458 100.542 92.7812 101.531 91.8438 102.625C90.9583 103.719 89.6042 104.865 87.7812 106.062C85.9583 107.26 83.901 108.432 81.6094 109.578C79.3177 110.672 76.9219 111.661 74.4219 112.547C71.974 113.432 69.6042 114.109 67.3125 114.578C65.0729 115.047 63.0417 115.255 61.2188 115.203C59.4479 115.151 58.1458 114.708 57.3125 113.875C57.3125 114.188 57.2865 114.734 57.2344 115.516C57.1823 116.297 57.0781 117.13 56.9219 118.016C56.7656 118.849 56.5052 119.656 56.1406 120.438C55.776 121.167 55.2552 121.688 54.5781 122C54.0052 122.26 53.4583 122.208 52.9375 121.844C52.4688 121.479 52.1042 121.089 51.8438 120.672ZM55.9844 103.484L70.3594 71.375C69.9948 70.1771 69.3698 69.3438 68.4844 68.875C67.651 68.3542 66.6875 68.1198 65.5938 68.1719C64.5 68.1719 63.3802 68.4062 62.2344 68.875C61.0885 69.3438 60.0208 69.9167 59.0312 70.5938C58.0938 71.2188 57.3125 71.9219 56.6875 72.7031C56.0625 73.4323 55.75 74.1094 55.75 74.7344L55.9844 103.484ZM105.516 120.672C102.547 119.474 100.281 117.911 98.7188 115.984C97.1562 114.005 96.0885 111.974 95.5156 109.891C94.9427 107.755 94.7604 105.698 94.9688 103.719C95.1771 101.74 95.5677 100.151 96.1406 98.9531C96.7135 97.7031 97.3646 97.026 98.0938 96.9219C98.875 96.7656 99.526 97.4427 100.047 98.9531C99.474 102.234 99.474 105.099 100.047 107.547C100.62 109.943 101.557 111.948 102.859 113.562C104.161 115.125 105.75 116.297 107.625 117.078C109.5 117.807 111.427 118.198 113.406 118.25C115.385 118.25 117.312 117.885 119.188 117.156C121.062 116.427 122.677 115.385 124.031 114.031C125.385 112.625 126.375 110.88 127 108.797C127.625 106.714 127.677 104.344 127.156 101.688C126.896 100.49 126.193 99.0312 125.047 97.3125C123.953 95.5417 122.677 93.6667 121.219 91.6875C119.812 89.7083 118.354 87.7031 116.844 85.6719C115.333 83.5885 114.057 81.6094 113.016 79.7344C112.026 77.8073 111.375 76.0625 111.062 74.5C110.802 72.8854 111.193 71.5573 112.234 70.5156C113.068 69.8385 114.292 68.8229 115.906 67.4688C117.573 66.0625 119.37 64.6823 121.297 63.3281C123.224 61.974 125.177 60.8021 127.156 59.8125C129.188 58.7708 131.01 58.25 132.625 58.25C133.823 58.25 134.448 58.4323 134.5 58.7969C134.604 59.1615 134.344 59.6562 133.719 60.2812C133.094 60.8542 132.182 61.5573 130.984 62.3906C129.839 63.224 128.589 64.1354 127.234 65.125C125.88 66.0625 124.5 67.0781 123.094 68.1719C121.74 69.2135 120.568 70.2812 119.578 71.375C118.641 72.4167 117.938 73.4583 117.469 74.5C117.052 75.4896 117.104 76.4271 117.625 77.3125C119.5 79.9688 121.375 82.651 123.25 85.3594C125.177 88.0677 126.844 90.75 128.25 93.4062C129.656 96.0104 130.698 98.5885 131.375 101.141C132.104 103.641 132.208 106.062 131.688 108.406C131.167 110.698 129.891 112.885 127.859 114.969C125.88 117.052 122.938 118.953 119.031 120.672C116.688 121.661 114.422 122.13 112.234 122.078C110.099 122.026 107.859 121.557 105.516 120.672Z" fill="white"/>
<defs>
<linearGradient id="paint0_linear" x1="125" y1="131.5" x2="24.5" y2="21.5" gradientUnits="userSpaceOnUse">
<stop stop-color="#191654"/>
<stop stop-color="#203363"/>
<stop offset="0.365574" stop-color="#203363"/>
<stop offset="0.886306" stop-color="#43C6AC"/>
</linearGradient>
</defs>
</svg>
